<svg xmlns="http://www.w3.org/2000/svg" version="1.1" xmlns:xlink="http://www.w3.org/1999/xlink" xmlns:svgjs="http://svgjs.dev/svgjs" width="2000" height="2000" viewBox="0 0 2000 2000"><g transform="matrix(1,0,0,1,0,0.0008312635317224704)"><svg viewBox="0 0 280 280" data-background-color="#ffffff" preserveAspectRatio="xMidYMid meet" height="2000" width="2000" xmlns="http://www.w3.org/2000/svg" xmlns:xlink="http://www.w3.org/1999/xlink"><g id="tight-bounds" transform="matrix(1,0,0,1,0,0.0001163768944536514)"><svg viewBox="0 0 280 280" height="280" width="280"><g><svg viewBox="0 0 280 280" height="280" width="280"><g transform="matrix(1,0,0,1,61.68389238643029,60.80404050710668)"><svg viewBox="0 0 156.63221522713943 158.39191898578665" height="158.39191898578665" width="156.63221522713943"><g><svg viewBox="0 0 158.39191898578665 160.17139235130372" height="158.39191898578665" width="156.63221522713943"><g transform="matrix(1,0,0,1,0,81.64859045111591)"><svg viewBox="0 0 158.39191898578665 78.5228019001878" height="78.5228019001878" width="158.39191898578665"><g id="textblocktransform"><svg viewBox="0 0 158.39191898578665 78.5228019001878" height="78.5228019001878" width="158.39191898578665" id="textblock"><g><svg viewBox="0 0 158.39191898578665 42.35144724390359" height="42.35144724390359" width="158.39191898578665"><g transform="matrix(1,0,0,1,0,0)"><svg width="158.39191898578665" viewBox="1.7 -38.05 190.53 50.949999999999996" height="42.35144724390359" data-palette-color="#e85a4f"><path d="M1.7-34.85L25.3-34.85 25.3-31.15 15.8-31.15 15.8 0 11.25 0 11.25-31.15 1.7-31.15 1.7-34.85ZM42.85 0.45Q39 0.45 35.87-1.3 32.75-3.05 30.97-6.28 29.2-9.5 29.2-13.75L29.2-13.75Q29.2-17.95 31.02-21.18 32.85-24.4 36-26.13 39.15-27.85 43.05-27.85L43.05-27.85Q46.95-27.85 50.1-26.13 53.25-24.4 55.07-21.2 56.9-18 56.9-13.75L56.9-13.75Q56.9-9.5 55.02-6.28 53.15-3.05 49.95-1.3 46.75 0.45 42.85 0.45L42.85 0.45ZM42.85-3.55Q45.3-3.55 47.45-4.7 49.6-5.85 50.92-8.15 52.25-10.45 52.25-13.75L52.25-13.75Q52.25-17.05 50.95-19.35 49.65-21.65 47.55-22.78 45.45-23.9 43-23.9L43-23.9Q40.5-23.9 38.42-22.78 36.35-21.65 35.1-19.35 33.85-17.05 33.85-13.75L33.85-13.75Q33.85-10.4 35.07-8.1 36.3-5.8 38.35-4.67 40.4-3.55 42.85-3.55L42.85-3.55ZM61.95-20.25L81.9-20.25 81.9-16.4 61.95-16.4 61.95-20.25ZM94.99-34.85L94.99-3.7 107.19-3.7 107.19 0 90.44 0 90.44-34.85 94.99-34.85ZM114.39-31.85Q113.09-31.85 112.19-32.75 111.29-33.65 111.29-34.95L111.29-34.95Q111.29-36.25 112.19-37.15 113.09-38.05 114.39-38.05L114.39-38.05Q115.64-38.05 116.52-37.15 117.39-36.25 117.39-34.95L117.39-34.95Q117.39-33.65 116.52-32.75 115.64-31.85 114.39-31.85L114.39-31.85ZM112.04-27.4L116.59-27.4 116.59 0 112.04 0 112.04-27.4ZM134.04 0.45Q130.89 0.45 128.39-0.63 125.89-1.7 124.44-3.63 122.99-5.55 122.84-8.05L122.84-8.05 127.54-8.05Q127.74-6 129.46-4.7 131.19-3.4 133.99-3.4L133.99-3.4Q136.59-3.4 138.09-4.55 139.59-5.7 139.59-7.45L139.59-7.45Q139.59-9.25 137.99-10.13 136.39-11 133.04-11.85L133.04-11.85Q129.99-12.65 128.06-13.48 126.14-14.3 124.76-15.93 123.39-17.55 123.39-20.2L123.39-20.2Q123.39-22.3 124.64-24.05 125.89-25.8 128.19-26.83 130.49-27.85 133.44-27.85L133.44-27.85Q137.99-27.85 140.79-25.55 143.59-23.25 143.79-19.25L143.79-19.25 139.24-19.25Q139.09-21.4 137.51-22.7 135.94-24 133.29-24L133.29-24Q130.84-24 129.39-22.95 127.94-21.9 127.94-20.2L127.94-20.2Q127.94-18.85 128.81-17.98 129.69-17.1 131.01-16.57 132.34-16.05 134.69-15.4L134.69-15.4Q137.64-14.6 139.49-13.83 141.34-13.05 142.66-11.5 143.99-9.95 144.04-7.45L144.04-7.45Q144.04-5.2 142.79-3.4 141.54-1.6 139.26-0.58 136.99 0.45 134.04 0.45L134.04 0.45ZM163.14-23.65L155.99-23.65 155.99-7.5Q155.99-5.5 156.84-4.67 157.69-3.85 159.78-3.85L159.78-3.85 163.14-3.85 163.14 0 159.03 0Q155.24 0 153.34-1.75 151.44-3.5 151.44-7.5L151.44-7.5 151.44-23.65 147.89-23.65 147.89-27.4 151.44-27.4 151.44-34.3 155.99-34.3 155.99-27.4 163.14-27.4 163.14-23.65ZM187.53-27.4L192.23-27.4 175.73 12.9 171.03 12.9 176.43-0.3 165.38-27.4 170.43-27.4 179.03-5.2 187.53-27.4Z" opacity="1" transform="matrix(1,0,0,1,0,0)" fill="#e85a4f" class="wordmark-text-0" data-fill-palette-color="primary" id="text-0"></path></svg></g></svg></g><g transform="matrix(1,0,0,1,36.06967327100468,52.349607503455374)"><svg viewBox="0 0 86.25257244377728 26.173194396732416" height="26.173194396732416" width="86.25257244377728"><g transform="matrix(1,0,0,1,0,0)"><svg width="86.25257244377728" viewBox="4.13 -36.04 120.34 36.53" height="26.173194396732416" data-palette-color="#e98074"><path d="M13.75 0L6.32 0 6.37-3.81 13.75-3.81Q17.53-3.81 20.07-5.41 22.61-7.01 23.89-9.9 25.17-12.79 25.17-16.7L25.17-16.7 25.17-18.9Q25.17-22.97 23.89-25.83 22.61-28.69 20.14-30.2 17.68-31.71 14.16-31.71L14.16-31.71 6.18-31.71 6.18-35.55 14.16-35.55Q18.85-35.55 22.38-33.51 25.9-31.47 27.88-27.72 29.86-23.97 29.86-18.85L29.86-18.85 29.86-16.7Q29.86-11.55 27.88-7.81 25.9-4.08 22.29-2.04 18.68 0 13.75 0L13.75 0ZM8.86-35.55L8.86 0 4.13 0 4.13-35.55 8.86-35.55ZM35.06-12.92L35.06-13.48Q35.06-17.31 36.52-20.34 37.99-23.36 40.67-25.13 43.36-26.9 47.04-26.9L47.04-26.9Q50.78-26.9 53.49-25.13 56.2-23.36 57.65-20.34 59.1-17.31 59.1-13.48L59.1-13.48 59.1-12.92Q59.1-9.11 57.65-6.07 56.2-3.03 53.5-1.27 50.8 0.49 47.09 0.49L47.09 0.49Q43.38 0.49 40.68-1.27 37.99-3.03 36.52-6.07 35.06-9.11 35.06-12.92L35.06-12.92ZM39.62-13.48L39.62-12.92Q39.62-10.3 40.45-8.08 41.28-5.86 42.93-4.52 44.58-3.17 47.09-3.17L47.09-3.17Q49.58-3.17 51.23-4.52 52.88-5.86 53.71-8.08 54.54-10.3 54.54-12.92L54.54-12.92 54.54-13.48Q54.54-16.09 53.71-18.31 52.88-20.53 51.22-21.89 49.56-23.24 47.04-23.24L47.04-23.24Q44.58-23.24 42.92-21.89 41.26-20.53 40.44-18.31 39.62-16.09 39.62-13.48L39.62-13.48ZM82.12-26.42L82.12 0 77.56 0 77.56-26.42 82.12-26.42ZM77.21-33.45L77.21-33.45Q77.21-34.52 77.89-35.28 78.56-36.04 79.88-36.04L79.88-36.04Q81.19-36.04 81.89-35.28 82.59-34.52 82.59-33.45L82.59-33.45Q82.59-32.4 81.89-31.65 81.19-30.91 79.88-30.91L79.88-30.91Q78.56-30.91 77.89-31.65 77.21-32.4 77.21-33.45ZM100.43-26.42L100.43-22.97 86.12-22.97 86.12-26.42 100.43-26.42ZM90.93-32.84L95.5-32.84 95.5-6.54Q95.5-5.18 95.91-4.49 96.33-3.81 96.99-3.59 97.65-3.37 98.4-3.37L98.4-3.37Q98.96-3.37 99.59-3.47 100.21-3.56 100.5-3.64L100.5-3.64 100.53 0Q99.99 0.17 99.12 0.33 98.26 0.49 97.04 0.49L97.04 0.49Q95.38 0.49 93.98-0.17 92.59-0.83 91.76-2.38 90.93-3.93 90.93-6.57L90.93-6.57 90.93-32.84ZM111.12-35.55L110.78-10.03 106.68-10.03 106.34-35.55 111.12-35.55ZM106.19-2.27L106.19-2.27Q106.19-3.34 106.86-4.1 107.53-4.86 108.85-4.86L108.85-4.86Q110.17-4.86 110.86-4.1 111.56-3.34 111.56-2.27L111.56-2.27Q111.56-1.2 110.86-0.46 110.17 0.27 108.85 0.27L108.85 0.27Q107.53 0.27 106.86-0.46 106.19-1.2 106.19-2.27ZM124.03-35.55L123.69-10.03 119.59-10.03 119.25-35.55 124.03-35.55ZM119.1-2.27L119.1-2.27Q119.1-3.34 119.77-4.1 120.44-4.86 121.76-4.86L121.76-4.86Q123.08-4.86 123.78-4.1 124.47-3.34 124.47-2.27L124.47-2.27Q124.47-1.2 123.78-0.46 123.08 0.27 121.76 0.27L121.76 0.27Q120.44 0.27 119.77-0.46 119.1-1.2 119.1-2.27Z" opacity="1" transform="matrix(1,0,0,1,0,0)" fill="#e98074" class="slogan-text-1" data-fill-palette-color="secondary" id="text-1"></path></svg></g></svg></g></svg></g></svg></g><g transform="matrix(1,0,0,1,30.25285652628525,0)"><svg viewBox="0 0 97.88620593321615 71.65043019156413" height="71.65043019156413" width="97.88620593321615"><g><svg xmlns="http://www.w3.org/2000/svg" xmlns:xlink="http://www.w3.org/1999/xlink" version="1.1" x="8" y="0" viewBox="0 0 100 87.5" style="enable-background:new 0 0 100 87.5;" xml:space="preserve" width="81.88620593321615" height="71.65043019156413" class="icon-icon-0" data-fill-palette-color="accent" id="icon-0"><path d="M12.5 6.25c0 3.455-2.795 6.25-6.25 6.25C2.795 12.5 0 9.705 0 6.25 0 2.795 2.795 0 6.25 0 9.705 0 12.5 2.795 12.5 6.25z" fill="#e98074" data-fill-palette-color="accent"></path><path d="M37.5 81.25c0 3.455-2.795 6.25-6.25 6.25S25 84.705 25 81.25 27.795 75 31.25 75 37.5 77.795 37.5 81.25z" fill="#e98074" data-fill-palette-color="accent"></path><path d="M37.5 31.25c0 3.455-2.795 6.25-6.25 6.25S25 34.705 25 31.25 27.795 25 31.25 25 37.5 27.795 37.5 31.25z" fill="#e98074" data-fill-palette-color="accent"></path><path d="M62.5 56.25c0 3.455-2.795 6.25-6.25 6.25S50 59.705 50 56.25 52.795 50 56.25 50 62.5 52.795 62.5 56.25z" fill="#e98074" data-fill-palette-color="accent"></path><rect x="25" width="75" height="12.5" fill="#e98074" data-fill-palette-color="accent"></rect><rect x="50" y="25" width="50" height="12.5" fill="#e98074" data-fill-palette-color="accent"></rect><rect x="50" y="75" width="50" height="12.5" fill="#e98074" data-fill-palette-color="accent"></rect><rect x="75" y="50" width="25" height="12.5" fill="#e98074" data-fill-palette-color="accent"></rect></svg></g></svg></g><g><rect width="29.37300464696164" height="3.819297219148782" y="66.83113297241535" x="128.1390624595014" fill="#e98074" data-fill-palette-color="accent"></rect><rect width="29.37300464696164" height="3.819297219148782" y="66.83113297241535" x="0.8798518793236099" fill="#e98074" data-fill-palette-color="accent"></rect><rect width="29.37300464696164" height="3.819297219148782" y="59.19253853411778" x="128.1390624595014" fill="#e98074" data-fill-palette-color="accent"></rect><rect width="29.37300464696164" height="3.819297219148782" y="59.19253853411778" x="0.8798518793236099" fill="#e98074" data-fill-palette-color="accent"></rect></g></svg></g></svg></g><g><path d="M3.095 102.74l6.178-17.889 2.802 0.967-2.486 7.197 23.624 8.159-1.194 3.457-23.624-8.158-2.498 7.234z" fill="#e98074" data-fill-palette-color="accent"></path><path d="M55.377 65.716c-1.356 1.553-2.935 2.654-4.737 3.301-1.807 0.642-3.671 0.753-5.591 0.33-1.925-0.417-3.745-1.374-5.458-2.869v0c-1.693-1.478-2.867-3.152-3.523-5.024-0.661-1.866-0.783-3.736-0.367-5.61 0.411-1.878 1.304-3.604 2.677-5.177v0c1.369-1.568 2.956-2.683 4.762-3.345 1.8-0.665 3.667-0.804 5.6-0.415 1.933 0.389 3.756 1.331 5.469 2.826v0c1.713 1.495 2.889 3.188 3.527 5.08 0.639 1.891 0.749 3.79 0.33 5.697-0.424 1.902-1.32 3.638-2.689 5.206zM52.965 63.61c0.861-0.986 1.438-2.114 1.73-3.384 0.293-1.271 0.207-2.579-0.259-3.924-0.461-1.341-1.356-2.592-2.685-3.753v0c-1.329-1.161-2.685-1.884-4.068-2.169-1.382-0.286-2.67-0.203-3.862 0.248-1.192 0.451-2.218 1.169-3.079 2.155v0c-0.882 1.011-1.46 2.13-1.732 3.356-0.277 1.232-0.174 2.506 0.308 3.823 0.487 1.311 1.395 2.547 2.725 3.708v0c1.349 1.178 2.705 1.927 4.066 2.246 1.361 0.311 2.626 0.253 3.796-0.173 1.175-0.431 2.194-1.142 3.06-2.133z" fill="#e98074" data-fill-palette-color="accent"></path><path d="M75.174 28.27l14.236-7.305 1.412 2.752-14.236 7.305z" fill="#e98074" data-fill-palette-color="accent"></path><path d="M124.146 0.414l2.713 24.845 9.727-1.062 0.322 2.946-13.354 1.459-3.035-27.792z" fill="#e98074" data-fill-palette-color="accent"></path><path d="M168.894 4.936c-0.681-0.134-1.212-0.484-1.592-1.051-0.38-0.566-0.504-1.19-0.37-1.871v0c0.135-0.687 0.485-1.218 1.051-1.592 0.566-0.38 1.19-0.504 1.871-0.37v0c0.655 0.129 1.166 0.475 1.533 1.039 0.369 0.557 0.486 1.18 0.351 1.867v0c-0.134 0.681-0.477 1.213-1.031 1.596-0.553 0.383-1.158 0.51-1.813 0.382zM166.358 8.075l3.58 0.703-4.238 21.567-3.58-0.704z" fill="#e98074" data-fill-palette-color="accent"></path><path d="M197.867 44.158c-1.463-0.838-2.633-1.839-3.512-3.005-0.873-1.162-1.39-2.38-1.552-3.653-0.164-1.282 0.051-2.522 0.645-3.721v0l3.278 1.877c-0.45 0.999-0.451 2.031-0.001 3.095 0.458 1.062 1.335 1.964 2.631 2.707v0c1.21 0.693 2.315 0.972 3.314 0.835 1.005-0.133 1.741-0.606 2.208-1.42v0c0.48-0.837 0.461-1.67-0.055-2.499-0.507-0.831-1.424-1.889-2.751-3.175v0c-1.203-1.184-2.144-2.222-2.822-3.113-0.675-0.897-1.114-1.906-1.316-3.027-0.206-1.116 0.044-2.29 0.749-3.524v0c0.558-0.975 1.359-1.701 2.401-2.178 1.046-0.483 2.238-0.657 3.578-0.521 1.339 0.135 2.694 0.595 4.065 1.379v0c2.111 1.209 3.511 2.719 4.203 4.532 0.685 1.809 0.545 3.671-0.422 5.585v0l-3.175-1.818c0.503-1.037 0.562-2.066 0.179-3.085-0.389-1.023-1.198-1.885-2.425-2.589v0c-1.136-0.65-2.181-0.926-3.137-0.825-0.95 0.103-1.65 0.548-2.101 1.333v0c-0.361 0.631-0.453 1.264-0.276 1.899 0.174 0.64 0.497 1.26 0.97 1.857 0.476 0.592 1.171 1.352 2.087 2.281v0c1.161 1.152 2.068 2.155 2.721 3.009 0.648 0.851 1.076 1.812 1.285 2.884 0.2 1.074-0.02 2.197-0.661 3.368v0c-0.598 1.044-1.426 1.819-2.485 2.324-1.065 0.502-2.259 0.687-3.584 0.553-1.328-0.128-2.674-0.583-4.039-1.365z" fill="#e98074" data-fill-palette-color="accent"></path><path d="M245.356 60.834l-3.708-4.37-9.879 8.384c-0.816 0.693-1.248 1.354-1.295 1.983-0.038 0.63 0.307 1.373 1.034 2.23v0l1.739 2.049-2.359 2.001-2.123-2.502c-1.317-1.552-1.947-3.02-1.89-4.403 0.052-1.379 0.894-2.761 2.527-4.147v0l9.879-8.384-1.841-2.169 2.291-1.944 1.841 2.17 4.225-3.586 2.367 2.789-4.225 3.586 3.707 4.369z" fill="#e98074" data-fill-palette-color="accent"></path><path d="M269.267 101.717l1.297 3.537-34.909-1.298-1.297-3.537 11.432 0.423 17.362-15.805 1.393 3.798-14.343 12.607z" fill="#e98074" data-fill-palette-color="accent"></path><path d="M36.772 169.722l6.945 19.627-3.075 1.088-2.794-7.898-25.907 9.168-1.34-3.785 25.907-9.168-2.811-7.944z" fill="#e98074" data-fill-palette-color="accent"></path><path d="M38.387 234.978c-1.505-1.695-2.483-3.572-2.931-5.63-0.454-2.054-0.319-4.101 0.406-6.142 0.725-2.04 2.024-3.892 3.897-5.556v0c1.843-1.637 3.832-2.683 5.965-3.136 2.129-0.459 4.189-0.335 6.179 0.373 1.989 0.717 3.745 1.933 5.268 3.648v0c1.523 1.715 2.521 3.6 2.994 5.655 0.468 2.06 0.358 4.115-0.331 6.167-0.697 2.051-1.98 3.907-3.848 5.566v0c-1.873 1.663-3.885 2.712-6.036 3.146-2.147 0.439-4.229 0.295-6.246-0.433-2.022-0.724-3.794-1.943-5.317-3.658zM41.026 232.634c0.957 1.077 2.106 1.864 3.449 2.361 1.352 0.497 2.79 0.589 4.316 0.276 1.531-0.317 3.023-1.12 4.476-2.41v0c1.448-1.286 2.424-2.665 2.928-4.138 0.504-1.473 0.593-2.891 0.266-4.254-0.327-1.363-0.968-2.583-1.925-3.66v0c-0.974-1.097-2.115-1.883-3.42-2.359-1.302-0.47-2.705-0.533-4.21-0.186-1.5 0.351-2.974 1.17-4.422 2.455v0c-1.478 1.312-2.481 2.685-3.011 4.119-0.535 1.438-0.648 2.829-0.339 4.173 0.305 1.338 0.935 2.546 1.892 3.623z" fill="#e98074" data-fill-palette-color="accent"></path><path d="M80.649 246.237l15.727 7.895-1.526 3.039-15.727-7.895z" fill="#e98074" data-fill-palette-color="accent"></path><path d="M128.851 248.33l-2.768 27.341 10.702 1.084-0.329 3.245-14.696-1.488 3.097-30.587z" fill="#e98074" data-fill-palette-color="accent"></path><path d="M163.315 249.108c-0.752 0.148-1.439 0.014-2.06-0.402-0.621-0.416-1.006-1.001-1.154-1.753v0c-0.148-0.752-0.014-1.439 0.403-2.06 0.416-0.621 1.001-1.006 1.753-1.154v0c0.72-0.142 1.384-0.003 1.991 0.416 0.608 0.419 0.986 1.005 1.135 1.757v0c0.148 0.752 0.021 1.438-0.383 2.056-0.404 0.618-0.965 0.999-1.685 1.14zM162.041 253.361l3.94-0.777 4.674 23.714-3.939 0.776z" fill="#e98074" data-fill-palette-color="accent"></path><path d="M209.377 260.76c-1.616 0.916-3.218 1.46-4.807 1.631-1.586 0.177-3.03-0.018-4.333-0.586-1.305-0.559-2.357-1.456-3.155-2.69v0l3.605-2.044c0.697 0.988 1.677 1.564 2.941 1.729 1.255 0.162 2.598-0.162 4.029-0.974v0c1.334-0.756 2.217-1.644 2.649-2.665 0.438-1.023 0.403-1.983-0.106-2.88v0c-0.522-0.92-1.321-1.371-2.397-1.353-1.071 0.014-2.587 0.289-4.548 0.823v0c-1.795 0.478-3.303 0.787-4.524 0.925-1.224 0.132-2.425-0.016-3.602-0.443-1.174-0.436-2.146-1.332-2.915-2.689v0c-0.606-1.069-0.845-2.233-0.715-3.492 0.135-1.262 0.641-2.487 1.518-3.676 0.882-1.191 2.076-2.214 3.582-3.068v0c2.329-1.32 4.541-1.8 6.638-1.439 2.106 0.364 3.788 1.541 5.046 3.533v0l-3.485 1.976c-0.703-1.052-1.646-1.684-2.829-1.895-1.183-0.211-2.453 0.069-3.81 0.838v0c-1.253 0.711-2.098 1.546-2.533 2.508-0.439 0.955-0.412 1.867 0.081 2.735v0c0.394 0.696 0.941 1.138 1.641 1.326 0.703 0.194 1.47 0.234 2.301 0.119 0.832-0.114 1.943-0.346 3.334-0.693v0c1.738-0.446 3.193-0.739 4.367-0.881 1.168-0.138 2.316-0.002 3.444 0.407 1.128 0.409 2.069 1.243 2.821 2.503v0c0.652 1.15 0.917 2.367 0.795 3.652-0.113 1.288-0.602 2.522-1.467 3.704-0.87 1.185-2.059 2.204-3.566 3.059z" fill="#e98074" data-fill-palette-color="accent"></path><path d="M232.519 212.521l-4.121 4.785 10.804 9.302c0.892 0.768 1.684 1.118 2.377 1.053 0.693-0.066 1.443-0.567 2.25-1.504v0l1.928-2.239 2.577 2.219-2.361 2.742c-1.458 1.693-2.941 2.626-4.452 2.8-1.505 0.178-3.149-0.501-4.932-2.036v0l-10.804-9.301-2.044 2.374-2.502-2.154 2.044-2.374-4.613-3.972 2.614-3.035 4.613 3.971 4.12-4.785z" fill="#e98074" data-fill-palette-color="accent"></path><path d="M247.474 174.733l1.466-3.887 28.122 26.175-1.462 3.877-9.216-8.573-25.808 0.69 1.575-4.174 20.997-0.185z" fill="#e98074" data-fill-palette-color="accent"></path><path d="M2.938 142.053c0-6.44 5.221-11.661 11.66-11.661 6.44 0 11.661 5.221 11.661 11.661 0 6.44-5.221 11.661-11.661 11.66-6.44 0-11.661-5.221-11.66-11.66z" fill="#e98074" data-fill-palette-color="accent"></path><path d="M252.773 142.053c0-6.44 5.221-11.661 11.66-11.661 6.44 0 11.661 5.221 11.661 11.661 0 6.44-5.221 11.661-11.661 11.66-6.44 0-11.661-5.221-11.66-11.66z" fill="#e98074" data-fill-palette-color="accent"></path></g></svg></g><defs></defs></svg><rect width="280" height="280" fill="none" stroke="none" visibility="hidden"></rect></g></svg></g></svg>